<svg xmlns="http://www.w3.org/2000/svg" viewBox="0 0 349.57 219.48"><defs><style>.cls-1{fill:#fff;}.cls-2{fill:none;stroke:#fff;stroke-miterlimit:10;stroke-width:2px;}</style></defs><g id="Capa_2" data-name="Capa 2"><g id="Capa_1-2" data-name="Capa 1"><path class="cls-1" d="M324.71,102a19.87,19.87,0,1,1-19.86,19.86A19.88,19.88,0,0,1,324.71,102m0-5a24.87,24.87,0,1,0,24.86,24.86A24.86,24.86,0,0,0,324.71,97Z"/><path class="cls-1" d="M157.07,32.42c-1.58,5.9-13.37,25.26-46.69,33.57-.43,4.06-1.19,7.92.25,11.19,1.17,2.66,2.72,4.1,8.25,3.8,9.56-.52,21.18-13.31,21.18-13.31l.09,2.49S124.49,89.5,110.69,89.5c-10.86,0-13.32-8.3-11.17-16.34,6.36-23.72,33.58-49.32,49.93-49.32C154.81,23.84,158.44,27.33,157.07,32.42ZM137.2,35.57c-10-1.73-18.85,11.56-24.45,23C136.17,61,146.71,37.22,137.2,35.57Z"/><path class="cls-1" d="M99,158.74c-.93,3.5-7.92,15-27.66,19.89-.26,2.41-.71,4.7.14,6.64.69,1.57,1.61,2.43,4.89,2.25,5.67-.31,12.55-7.89,12.55-7.89l.06,1.48s-9.28,11.46-17.46,11.46c-6.44,0-7.9-4.92-6.62-9.69,3.77-14,19.9-29.22,29.59-29.22C97.61,153.66,99.76,155.73,99,158.74Zm-11.77,1.87c-6-1-11.17,6.85-14.49,13.6C86.57,175.66,92.81,161.59,87.18,160.61Z"/><path class="cls-1" d="M315.38,32.42C313.8,38.32,302,57.68,268.7,66c-.44,4.06-1.2,7.92.24,11.19,1.17,2.66,2.72,4.1,8.25,3.8,9.56-.52,21.19-13.31,21.19-13.31l.09,2.49S282.8,89.5,269,89.5c-10.86,0-13.32-8.3-11.17-16.34,6.36-23.72,33.59-49.32,49.93-49.32C313.12,23.84,316.75,27.33,315.38,32.42Zm-19.87,3.15c-10-1.73-18.85,11.56-24.44,23C294.48,61,305,37.22,295.51,35.57Z"/><path class="cls-1" d="M212.18,69.87,212,72.45s-12.2,15.82-23.48,17.35c-6.43.87-.67-13.58-.67-13.58l11.4-25.37c2.08-4.28,5.55-14.44,3.69-15-5.9-1.8-17.17,6.95-21.36,10.64-3.6,3.16-10.88,12.41-10.88,12.41L158.08,85.54l-10.39,3.87,18-43.31c2.22-4.29,3.55-10.08,2.65-10.76-3.18-2.46-15.46,11-15.46,11l.2-2s13-20.1,26-16.5c5.17,1.43-3.64,17.42-6.57,23.86,8.14-7.29,21.18-20.78,35.84-24.28,8.83-2.11,8,4.5,5,10.13L201.27,65.77c-2.19,4.15-6.18,15.78-5.36,16.09C199,83,212.18,69.87,212.18,69.87Z"/><path class="cls-1" d="M224.84,89.42a5,5,0,0,1-5.18-5.12c0-6,2.65-11.75,4.57-16.65,3.09-7.84,12.63-31.23,12.63-31.23l-13,0,9.72-7.47,6.73,0,4.52-11.36L255,14.31,249,28.93h26.47l-10,7.31-19.5.17L232.67,68.66c-2.4,5-4.89,12.19-1.24,14.08,2.66,1.37,15.72-8.95,15.72-8.95l-1.21,3.93S236.76,89.42,224.84,89.42Z"/><path class="cls-1" d="M247.37,161.55c-11.18,17.12-30,31.07-42.06,31.07s-12.62-14-1.44-31.07,30.14-31.08,42.06-31.08S258.56,144.43,247.37,161.55Zm-11.31-23.09c-7.23,0-17.76,10.4-23.57,23.09s-4.66,23.08,2.7,23.08,17.88-10.4,23.56-23.08S243.41,138.46,236.06,138.46Z"/><path class="cls-1" d="M252.57,192.62c-6.79.89,3.81-21.65,3.81-21.65l20.21-48.78c9.35-24.86,35.33-42.07,44.88-43.34,4.62-.61,13.81.19,13.81.19l-11.87,9.24s-1.67-.73-9.53-.73c-6.59,0-13.56,3.42-20.06,15.85l-29.31,69.16c-2.27,4.69-4,11.71-2.81,11.73,6.08.08,15.86-12.45,15.86-12.45l-.93,4.34S265.75,190.9,252.57,192.62Z"/><path class="cls-1" d="M94.81,192.63c-4.21.55,2.37-13.43,2.37-13.43l12.53-30.26c5.8-15.43,21.92-26.11,27.85-26.9a54.61,54.61,0,0,1,8.56.12l-7.36,5.74s-1-.46-5.91-.46c-4.09,0-8.42,2.13-12.45,9.84l-18.18,42.91c-1.41,2.91-2.5,7.26-1.75,7.27,3.78,0,9.84-7.72,9.84-7.72l-.57,2.69S103,191.56,94.81,192.63Z"/><path class="cls-1" d="M301.33,205c0-1.59.63-2.22,2.84-2.62l1.94-.35V200.3c0-.68-.31-.93-1-.93s-1.19.33-1.19,1.15v1h-2.37v-1.09c0-1.55.66-2.67,3.54-2.67s3.59.81,3.59,2.56v5.56c0,2.18-.59,3-3.42,3h-.42c-2.93,0-3.48-1-3.48-2.8Zm2.58,1.1c0,1,.22,1.22,1.1,1.22s1.1-.23,1.1-1.17v-2.69l-.84.16c-1.25.25-1.36.57-1.36,1.26Z"/><path class="cls-1" d="M315.1,208.8v-7.92c0-1.15-.33-1.5-1.19-1.5s-1.26.35-1.26,1.5v7.92h-2.58v-7.59c0-2.2.69-3.43,3.6-3.43h.46c2.85,0,3.54,1.23,3.54,3.43v7.59Zm1.59-11.8H315v-.33c0-.28,0-.4-.22-.4a1.13,1.13,0,0,0-.51.25,2.59,2.59,0,0,1-1.58.56,1.26,1.26,0,0,1-1.44-1.42V195H313v.33c0,.29,0,.41.25.41s.26-.12.44-.24a2.52,2.52,0,0,1,1.63-.57c1,0,1.41.4,1.41,1.42Z"/><path class="cls-1" d="M319,201.18c0-2.2.65-3.4,3.58-3.4H323c2.86,0,3.5,1.2,3.5,3.4v4.28c0,2.29-.64,3.49-3.5,3.49h-.47c-2.93,0-3.58-1.2-3.58-3.49ZM321.6,206c0,1.22.44,1.36,1.22,1.36s1.12-.15,1.12-1.36l0-5.24c0-1.2-.4-1.38-1.11-1.38s-1.21.18-1.21,1.38Z"/><path class="cls-1" d="M327.63,200.36c0-1.64,1.13-2.58,3.55-2.58,2,0,3.49.54,3.49,2.52v.7h-2.43v-.39c0-.76-.33-1.11-1.05-1.11-.56,0-1,.26-1,.75v.06c0,.65.73,1.26,1.35,1.72l1.41,1a3.62,3.62,0,0,1,1.79,3.23v.09c0,1.5-.81,2.56-3.53,2.56s-3.44-.82-3.44-3v-.64h2.34v.78a1,1,0,0,0,1.08,1.12.84.84,0,0,0,1-.93v-.06c0-.61-.33-1-1.17-1.65l-1.52-1.16c-1.33-1-1.86-1.77-1.86-3Z"/><path class="cls-1" d="M300.28,173.92a17.41,17.41,0,0,1,.73-3.34,10.71,10.71,0,0,1,1.49-2.83,6.78,6.78,0,0,1,2.24-2,6.28,6.28,0,0,1,3.05-.72,7.31,7.31,0,0,1,2.92.56,6.33,6.33,0,0,1,2.19,1.52,6.4,6.4,0,0,1,1.37,2.3,8.63,8.63,0,0,1,.48,2.94,6.88,6.88,0,0,1-2.38,5.56,6.93,6.93,0,0,1,2.49,2.61,8.49,8.49,0,0,1,.9,4.14,9.25,9.25,0,0,1-.62,3.54,7.55,7.55,0,0,1-1.7,2.55,7,7,0,0,1-2.46,1.54,8.51,8.51,0,0,1-3,.51,7,7,0,0,1-5.51-2.48c-1.46-1.66-2.19-4-2.71-7h3.74a10.31,10.31,0,0,0,.73,2.74,6.59,6.59,0,0,0,1.11,1.75,3.65,3.65,0,0,0,1.3.94,3.52,3.52,0,0,0,1.34.29,3.24,3.24,0,0,0,1.39-.31,3.83,3.83,0,0,0,1.22-.88,4.51,4.51,0,0,0,.88-1.4,4.63,4.63,0,0,0,.34-1.81,5,5,0,0,0-1.08-3.29,3.67,3.67,0,0,0-3-1.32h-2.13v-4h2.13a3.13,3.13,0,0,0,1.44-.31,2.84,2.84,0,0,0,1-.8,3,3,0,0,0,.53-1.11,5.32,5.32,0,0,0,.15-1.24,4.35,4.35,0,0,0-.83-2.82,2.79,2.79,0,0,0-2.26-1,2.42,2.42,0,0,0-1.44.46,4.06,4.06,0,0,0-1.08,1.17,6.3,6.3,0,0,0-.73,1.62,10.77,10.77,0,0,0-.38,1.86Z"/><path class="cls-1" d="M319.19,180.29l1.59-14.89h12.76v3.74H324c-.13,1.42-.28,2.8-.44,4.14l-.17,1.59a6.53,6.53,0,0,1,2.16-.7A12,12,0,0,1,327,174a6.5,6.5,0,0,1,3.06.74,7.91,7.91,0,0,1,2.45,2,10,10,0,0,1,1.63,3,11.22,11.22,0,0,1,.59,3.65,12.12,12.12,0,0,1-.51,3.51,9,9,0,0,1-1.53,3,7.71,7.71,0,0,1-2.57,2.1,8,8,0,0,1-3.7.8,7,7,0,0,1-5-2.05,11.17,11.17,0,0,1-2.94-6.22h4a7.45,7.45,0,0,0,1.64,3.36,3.25,3.25,0,0,0,2.36,1.17,3.57,3.57,0,0,0,1.72-.43,4.52,4.52,0,0,0,1.39-1.2,5.94,5.94,0,0,0,.93-1.79,6.89,6.89,0,0,0,.34-2.22,6.38,6.38,0,0,0-.38-2.24,5.67,5.67,0,0,0-1-1.75,4.61,4.61,0,0,0-1.4-1.15,3.43,3.43,0,0,0-1.6-.41,3.77,3.77,0,0,0-2,.64,5.52,5.52,0,0,0-1.8,1.74Z"/><path class="cls-1" d="M66.9,149.33l-7.14,18.09c-1.26,2.42-8.68,20.22-8,20.62,2.05,1.14,10.84-8.35,10.84-8.35l-.5,2.38S50.91,194.75,45.51,192c-2.49-1.28,1.5-8.35,3.17-12.06-4.06,3.86-17.08,12.55-21.4,12.55-3.71,0-4.74-2.9-3.62-7.06,5.05-18,20.67-27.94,28.18-30,2-.56,7.94-1.3,7.94-1.3A27.5,27.5,0,0,1,62,147.82c6.73-13.77,21.34-24.94,28.25-25.77,2.1-.25,7.89,0,7.89,0l-7.55,5.73s-2.75-.75-7.91,0C79.79,128.24,74.11,131.81,66.9,149.33Zm-9.58,10.72c-10-5.24-18.64,5.65-21.88,11.57-2.74,5-5.1,14.56-4.45,15.18,1.18,1.12,9.53-3,16.12-9.38C52.79,171.91,57.32,160.05,57.32,160.05Z"/><path class="cls-1" d="M101.26.34c5,.46,9.59,2.66,14.29,4.32-4.75,5.31-5.72,8.82-12,15.31a18.53,18.53,0,0,0-2.78.25s2.94-5.15,1.77-7.51C100.68,9,96.43,7.12,92.43,6.36,82.14,4.51,71.39,7.79,63.1,14,49.47,23.77,41.29,39.51,37.33,55.52c-1.69,7-2.32,15.38,2.42,21.42,3.8,5.12,10.72,6.39,16.71,5.85A44.78,44.78,0,0,0,77.4,74.33,200.18,200.18,0,0,0,86.73,51.4c-9.44.16-19.1-.86-28.32,1.67,2.79-2.74,5.22-6,8.79-7.8,3.57-1.41,7.48-1.55,11.28-1.58,7.46,0,14.92,0,22.38,0C94.1,54.75,90,67.13,85,79c-4.4,10.55-8.74,21.65-17.15,29.75-8.68,8.36-20.11,14.73-32.4,14.92-6.93.2-14-2.87-17.69-9,3.75-2.46,7.56-4.83,11.21-7.44,1.48,3.15,2.61,6.84,5.67,8.85,4,2.79,9.15,2.09,13.73,1.88,6.79-.79,11.71-6.25,15-11.78A148,148,0,0,0,74.7,81c-5.19,2-9.94,5-15.29,6.58C51.56,90,42.86,92.07,35,88.72c-6.73-2.46-10.87-9.43-11.25-16.39C23,63,25.82,53.84,29.55,45.4c7.93-17.81,22.92-32.12,40.69-40C75.18,3.16,83.86-1.26,101.26.34Z"/><path class="cls-1" d="M164.61,116.47c7.68-9,19.54-13.53,31.16-13.94a41.45,41.45,0,0,1,17.21,5c-3.13,4-6,8.26-9.1,12.27a11.68,11.68,0,0,1-5.49,3.76c1.15-3.81,5-8.22,1.77-12-4-4.79-10.9-3.7-16.44-3.59-9.72.19-17.95,12-13.08,20.89,4.81,8.27,12.67,14.19,17.84,22.19a19.9,19.9,0,0,1,1.42,19c-2.94,6.84-8.22,12.24-13.47,17.37a78.19,78.19,0,0,1-21.64,15.34c-24.14,11.13-38.93,12.26-58.26,15-7.71,1.1-52.76,4.34-74-2.34-8.68-2.73-17.82-8.84-21.69-17.47L0,194.46c3.83-4.39,8.73-7.75,12.24-12.41-.6,5.27-.31,10.91,2.57,15.54,4.4,7.53,13,11.2,21,13.44,14.34,3.68,29.31,4,44,3a244,244,0,0,0,54.24-9.8,82.15,82.15,0,0,0,17.66-7.47c10.51-6,19.38-15.54,23-27.21,1.22-4.38,2.34-9.43-.1-13.6-5.29-7.45-13.82-13-16.19-22.24C157.68,127.43,160.82,121.28,164.61,116.47Z"/><rect class="cls-2" x="296.16" y="160.72" width="43.61" height="52.39" rx="10.2"/><path class="cls-1" d="M318,111.79a3,3,0,0,1,2-2.34c3.81-1.24,7.73-2,11.7-.59,3.82,1.34,5.22,5.88,3.68,9.25-1.21,3.31-4.69,4.69-7.56,6.2a34.5,34.5,0,0,0,7.74,10.28,10.2,10.2,0,0,1-7.46,1.31c-2.66-3.86-4.43-8.22-6.82-12.23-1.26,4.32-2,8.87-1.16,13.34-2.17-.62-5.26-.3-6.26-2.77C315.05,126.73,316.65,119.28,318,111.79Zm4.91,2.86c-.57,2.49-1,5-1.43,7.54,2.93-.46,9.3-1.46,9.41-5.7a4.31,4.31,0,0,0-1.57-3.54c-1.21-.85-2.83-.52-4.4-.22A2.55,2.55,0,0,0,322.9,114.65Z"/></g></g></svg>